<?xml version="1.0" encoding="iso-8859-1"?>
<!-- Uploaded to: SVG Repo, www.svgrepo.com, Generator: SVG Repo Mixer Tools -->
<svg version="1.1" id="Layer_1" xmlns="http://www.w3.org/2000/svg" xmlns:xlink="http://www.w3.org/1999/xlink" 
	 viewBox="0 0 512 512" xml:space="preserve">
<polygon style="fill:#C9E3F7;" points="407.273,46.545 104.727,46.545 104.727,186.182 218.182,256 104.727,325.818 
	104.727,453.818 407.273,453.818 407.273,325.818 293.818,256 407.273,186.182 "/>
<polygon style="fill:#78B9EB;" points="407.273,46.545 256,46.545 256,453.818 407.273,453.818 407.273,325.818 293.818,256 
	407.273,186.182 "/>
<g>
	<polygon style="fill:#FFFFFF;" points="139.636,465.455 139.636,345.325 256,273.718 372.364,345.325 372.364,465.455 	"/>
	<polygon style="fill:#FFFFFF;" points="139.636,46.545 139.636,166.675 256,238.282 372.364,166.675 372.364,46.545 	"/>
</g>
<g>
	<polygon style="fill:#FFDA44;" points="174.545,465.455 174.545,364.831 256,314.707 337.455,364.831 337.455,465.455 	"/>
	<polygon style="fill:#FFDA44;" points="174.545,147.169 174.545,104.727 337.455,104.727 337.455,147.169 256,197.293 	"/>
</g>
<g>
	<polygon style="fill:#FF9811;" points="337.455,465.455 337.455,364.831 256,314.707 256,465.455 	"/>
	<polygon style="fill:#FF9811;" points="337.455,147.169 337.455,104.727 256,104.727 256,197.293 	"/>
	<rect x="69.818" style="fill:#FF9811;" width="372.364" height="69.818"/>
	<rect x="69.818" y="442.182" style="fill:#FF9811;" width="372.364" height="69.818"/>
</g>
<g>
	<rect x="256" style="fill:#FF5023;" width="186.182" height="69.818"/>
	<rect x="256" y="442.182" style="fill:#FF5023;" width="186.182" height="69.818"/>
</g>
</svg>